<svg xmlns="http://www.w3.org/2000/svg" id="Layer_2" viewBox="0 0 100 49.1"><defs><style>.cls-1{fill:#db0000}</style></defs><g id="Layer_2-2"><path d="M31.2 26c-1 0-1.2 1-1.2 1.4l.2.8V30c-.2 1.2-.7 2-1 2.4-.2.4-.6.7-1.2.7h-3c-.5 0-1.3-.3-2-.3-.6 0-1 .1-2-.4a5 5 0 0 1-2-2.2 5 5 0 0 1-.5-2.1v-7.7l.5-.5c.3-.3.2-.8.2-1s-.7-.7-1-.8c-.2-.1-.7-.2-1.4 0-.6 0-.7.2-2.2.4-2 .4-4.1 1-5.3 1.6-1.2.7-4.3 2.7-5 3.4a10 10 0 0 0-2 2.4c-.2.7-1.1 2-1.6 3.3a8 8 0 0 0-.7 3.5c0 1.2.5 1.7 1.5 2.2 1 .5 2 .6 2.7.7a7 7 0 0 0 3-.4c.7-.4 2.4-.9 4.6-2.4 2.2-1.5 3.7-2.8 4.3-3.8 0 1.1.5 2.2 1.3 3.4.8 1.2 2 2.4 3.6 2.7 1.5.4 5.3.6 7 .4 1.7 0 2.9-.9 3.4-2 .6-1 1-2.3 1.1-3l.1-2.7c0-.8-.4-1.7-1.4-1.7ZM16 24l-.9 2-.7 1.4-2.7 2.5c-1.5 1.2-3.1 1.9-4.3 2.6-1.2.7-1.5.7-2.3.6l-2.2-.3c-.6-.1 0-1.7.1-2.4.2-.8 1.5-2.9 2-3.9.6-1 3-2.5 4.2-3.3l2.7-1.4c.8-.3 4.2-1 4.2-1l-.1 3.2Z" class="cls-1"/><circle cx="36.1" cy="34.4" r="1.2" class="cls-1"/><circle cx="65.4" cy="31.9" r="1.2" class="cls-1"/><path d="M99.8 31.7c-.4-.6-1.1-.8-1.7-.4a9.6 9.6 0 0 1-3.5 1.8c-1 .3-1.5 0-2-.1a14 14 0 0 0-2.3-.2c-1.1 0-2.3-.4-2.7-.5a5 5 0 0 1-1.4-.6c-.5-.3-1.4-1.6-1.8-2.2l-1.2-2.3-1.6-2.5c-.4-.8-.9-1.5-1.3-2 .6 0 1.1-.2 1.7-.6.7-.3 1.6-1.1 1.6-1.1l1.6-1c.8-.3 1.6-1.4 1.7-1.7v-2.8l-.6-3c-.2-1-1.5-1.5-2.1-1.5-.7 0-1.3.1-1.5.3l-1.4 1.3-1.8 1.8-.6 1.2a136.8 136.8 0 0 0 .3-5.6V6.7c0-1.2-.5-1.5-.8-1.9l-1.4-2c-.2-.4-.2-.8-1-2-.6-.8-.8-.8-1.3-.8s-1 .4-1.4.8c-.5.3-.6.9-.9 2-.3 1.2-.3 2-.4 3.6-.2 1.6 0 10.7.1 12.4a56.4 56.4 0 0 0 1.3 8l-2 3.7c-.4 1-1 2-1 2.4l-.4.6-1.3 1.6c-.4.6-.3 1.4.3 1.8.6.4 1.3.2 1.7-.3l1-1.2c.3-.3.7-1 1-1.8l1.4-2.7.1 1.3c0 1.2.4 2.6.7 3 .3.2.6.4 1 .4.7 0 1.3-.5 1.4-1.2v-6c0-.8.7-3 1-4l.1.1c.2.2.6.6 1 1.5l1 1.5.6.9.3.6 1 2 .2.3c1 1.3 1.6 2.1 2.3 2.6.8.5 1.6.7 2 .8h.1c.5.2 2 .6 3.4.7l1.7.1h.2c.3.2.8.3 1.5.3.5 0 1 0 1.6-.2 1.3-.4 2.2-.8 4.2-2.2.5-.4.7-1.1.3-1.7ZM76.6 8.8v5.5l-.2 1.8-.7 2.5-.6 3c-.2-1-.4-2.2-.4-3-.2-1.7-.3-10.6-.2-12l.1-1c0-.7 0-1.2.2-1.7V4l1.5 2.3.3.3v2.2Zm3.2 11.5h-.3l.7-1.3.6-1.9.4-.7.4-.5 1.5-1.4.7-.8h.3c.3 1.5.3 3.4.3 3.9-.2 0-.3.2-.3.2l-1.8 1-.1.1-.2.1-1.3 1a3 3 0 0 1-1 .3ZM60 30.5l-4.3-.1c-.3 0-.4-.2-1.2-.2-.7 0-.7-.3-1-.5l-.5-1-1.8-3.1-1.5-3.2c-.1-.4-1.1-1.9-1.4-2.5l-.7-1.6L50 18a27 27 0 0 0 4.6-1.4l2-.8c.4 0 1.7-.5 3-1.3.5-.4.6-1.2.2-1.7-.4-.6-1.2-.7-1.8-.3-.6.4-3.2 1.4-4.1 1.7-.9.4-2.9 1-3.7 1.2l-2 .3.3-1c.3-.7 1-4.1 1.3-5 .2-1 .6-2 .6-2.8 0-.8 0-2.8-.2-3.5-.1-.7-.3-1-1-1.7s-1.5-1-2-1H45c-.4.1-1 .8-1.3 1.2-.3.4-.5 1-.8 2-.2 1-.3 2-.3 3.6 0 1.5.1 2.8.3 4l1 3.3.3 1-1.2-.2-4-.4c-.7 0-1.3.4-1.4 1.1 0 .7.4 1.4 1 1.4l2.2.2 2.2.2h2l-.3 2v3.6c0 .5-.2 1.1-.4 1.7L43 29.4l-1.2 3c-.4.6-.8 1.1-1.6 1.7-.5.4-.7 1.2-.3 1.8.4.5 1 .6 1.6.3 1-.6 1.4-1 2-2 .7-1 .8-1.2 1.3-2.4l1-3a18.2 18.2 0 0 0 1.4-5.6s1.2 2 2.1 4.1c1 2 1.6 2.8 2.2 3.9.7 1 2 1.4 2.5 1.5l1.2.2 4.8.1c.7 0 1.3-.5 1.3-1.2s-.6-1.3-1.3-1.3ZM47.3 9.1l-.5 2-.6 2.4-.7-2.5-.2-3.4a15.7 15.7 0 0 1 .5-4.1l.2-.2h.8s.3 0 .5.3l.4.4v.1c.1.3.2 1.3.1 2.8l-.3 1.6-.2.5ZM35.3 48c-.3.4-.7.4-1 .2-1.1-.7-2.5-2-3.3-3l-1.1 2.3c-.2.4-.5.6-1 .5-.4-.2-.4-.7-.2-1l1.3-3-2.1-2.5c-.3-.3-.4-.7 0-1 .3-.3.7-.2 1 0l.9 1.2.7 1 .9-1.9c.2-.4.5-.6 1-.4.4.2.3.7.2 1l-.3.7-.7 1.8c.6.5 2.6 2.7 3.3 3.1.4.2.6.6.4 1ZM21.9 46c0 .5.2 1 .7 1.4.7.5 1.5.8 2.3 1 .3.2.7 0 .8-.3.2-.4 0-.7-.4-1-.4 0-.8-.2-1.2-.4-1-.2-1-1-.3-1.9l.3-.2c.2-.2.3-.4.2-.7 0-.3-.3-.5-.6-.5h-.6c-.6 0-.7-.4-.8-.9-.2-.5.2-.6.5-.8l1-.2c.3 0 .5-.3.5-.7 0-.4-.3-.6-.7-.6-1 0-1.9.3-2.5 1.1-.5.8-.2 2 .4 2.7.1.2.5.4.9.5-.3.5-.4.9-.5 1.4ZM19.2 48.1c-1 .2-1.9 0-2.8.2-.4 0-.6-.2-.7-.5a5 5 0 0 1-.5-1.5 10 10 0 0 0-.9-3.2 4 4 0 0 1-.3-1.6c0-.4 0-.9.6-.9.5 0 .7.4.7.8 0 .6.2 1 .4 1.5.5 1 .9 3 1 4l2.2-.1c.5-.1 1 0 1 .5.1.5-.3.7-.7.8ZM53.2 47.8c0 .4-.2.7-.6.7-.4 0-.6-.2-.7-.7 0-.4.3-.6.7-.6.4 0 .6.2.6.6ZM50.9 41.6c0 .3-.3.6-.8.7l-1.7.2c.3 1.3.6 3.6.6 5 0 .4-.2.8-.7.8s-.7-.4-.7-.9c0-1.4-.2-3.4-.6-4.8-.7 0-1.9-.2-2.5-.4-.4-.1-.6-.4-.4-.8 0-.4.4-.6.8-.5l.7.2 1.1.1V41s.3-.3.6-.3c.2 0 .6 0 .8.5h.7l1-.1c.3-.1.7-.1.8 0 .1 0 .3.3.3.5ZM13 47.7l-1-1.5c-.4-.6-1-1-1.3-1.8A85 85 0 0 0 8.6 41c-.6-.3-1.1 0-1.2.5-.1 1.6-.5 3-1 4.5-.2.5-.2 1-.2 1.5v.5c0 .4.2.7.7.7.4 0 .6-.2.6-.6v-1.5h2.8c.2.3.4.3.6.5l.8 1.1c.2.4.5.6 1 .5.4-.2.4-.6.2-1Zm-5-2.4.2-.8.4-1.3a6 6 0 0 0 .8 1.5l.2.6H8ZM98 42.5c-.5 1.4-.6 2.8-.5 4.3v.5c0 .3-.2.6-.5.7-.4.1-.6 0-.8-.3-.7-.7-1.1-1.6-1.5-2.5l-.5-1.2V47l-.1.6c0 .4-.2.8-.7.8-.5 0-.6-.4-.6-.8V44c0-.8.2-1.6.3-2.3l.1-.6c.2-.3.4-.6.8-.6.3 0 .5.3.7.6l.2.7L96 45c0-1 .8-3.1.9-4.4 0-.4.3-.6.6-.6.4 0 .6.3.6.7 0 .6 0 1.1-.2 1.7ZM66.5 43.3c.8-1 2-1.3 2.5-2.4 0-.2.3-.4.5-.5.3-.3.6-.3 1 0 .2.3.1.6-.1 1-.6.8-1.2 1.6-2.1 2.1-.2.1-.4.2-.5.5 1.4 0 2.4 1 3.6 1.6.4.1.6.4.5.8-.1.4-.4.5-.8.5-.5 0-1-.3-1.3-.7a5 5 0 0 0-2.6-1c-.4 0-.6.2-.6.6v2.4c.2.4 0 .8-.4.9-.6 0-.8-.3-.8-.7-.2-.8-.1-1.6-.1-2.3 0-1.5 0-3-.6-4.4a4 4 0 0 1-.2-1.4c0-.4.1-.7.5-.8.5 0 .8.3.8.7.1 1 .6 2 .8 3.1ZM85.5 47.6c0 .3-.2.6-.5.6H84c-1 .1-1.7-.3-2.4-.8-1.1-.7-1.4-2.2-.4-3.5-.8 0-1.4-.4-1.8-1-.5-.6-.5-1.2.1-1.7s1.2-1 2-1c.4-.1.9 0 1 .5 0 .5-.2.7-.7.8l-.9.3c-.1.1-.4.2-.3.4 0 .2.2.3.4.3.5 0 1 .2 1.4.4.7.4.8 1 .3 1.5l-.5.5c-.4.5-.3 1 .2 1.4.4.3.9.6 1.5.6h1c.3 0 .5.3.5.7ZM78.1 47.8c0 .5-.4.6-.8.6l-1.8-.1a1 1 0 0 1-.9-.6c-.2-.7-.6-1.2-.6-2-.1-.8-.5-1.6-.8-2.4-.2-.7-.3-1.4-.3-2.2 0-.4-.2-1 .6-1.1.8 0 .7.7.7 1.2 0 .6.2 1.2.4 1.8.5 1.1.7 2.6 1.1 3.8l1.7.3c.4 0 .7.2.7.7ZM89.6 47.4c0 .5 0 .8-.5 1-.4 0-.6-.2-.8-.6-.4-1.1-.5-2.3-.8-3.4l-.7-2.4c-.2-.4-.2-.8.3-1 .6-.2.8.1 1 .6.5 1.2.7 2.6 1 4l.5 1.8Z" class="cls-1"/></g></svg>