<?xml version="1.0" encoding="utf-8"?>
<!-- Generator: Adobe Illustrator 26.4.1, SVG Export Plug-In . SVG Version: 6.00 Build 0)  -->
<svg version="1.1" id="Layer_2_00000020363034038336328090000015423445148013985926_"
	 xmlns="http://www.w3.org/2000/svg" xmlns:xlink="http://www.w3.org/1999/xlink" x="0px" y="0px" viewBox="0 0 64.6 62.2"
	 style="enable-background:new 0 0 64.6 62.2;" xml:space="preserve">
<style type="text/css">
	.st0{fill:#DB0000;}
</style>
<g id="Layer_1-2">
	<g>
		<path class="st0" d="M34.3,32.4c-0.1-0.5-0.5-0.5-1.2-0.3c-0.9,0.3-1.9,0.4-2.7-0.1c-0.7-0.5-1.4-0.5-2.1-0.4
			c-0.2,0.1-0.4,0.1-0.7-0.1c-0.5-0.4-1-0.4-1.6-0.4c-0.7,0.1-1.4,0.2-2.1,0.3c-0.5,0.1-0.9,0.2-0.8,0.8c0.1,0.6,0.5,0.7,1,0.6
			c0.5-0.1,0.7,0,1,0.4c0.2,0.3,0.3,0.5,0.3,0.8c0.1,0.3,0.2,0.7,0.6,0.7c1.1,0.3,2.2,0.6,3.4,0.6c1.6-0.2,2.9-0.4,3.7-1.8
			c0.1-0.2,0.2-0.3,0.4-0.3C34,33.3,34.4,33,34.3,32.4L34.3,32.4z M30.3,33.8c-1.7,0.6-3.4,0.1-3.9-1.1c0.2-0.1,0.3,0,0.4,0.1
			c0.5,0.4,1.1,0.6,1.8,0.2c0.6-0.3,1.1,0.3,1.6,0.5c0.3,0,0.6-0.1,1,0C30.9,33.7,30.6,33.8,30.3,33.8L30.3,33.8z"/>
		<path class="st0" d="M36.7,32.5c0,0.3-0.1,0.6-0.2,0.8c-0.5,0.7-0.9,1.3-1.2,2.1c-0.2,0.4-0.5,0.7-1,0.5c-0.5-0.2-0.5-0.6-0.3-1.1
			c0.2-0.6,0.5-1.2,0.9-1.8c0.2-0.3,0.2-0.5-0.1-0.7c-0.3-0.3-0.7-0.7-0.9-1.1c-0.2-0.3-0.1-0.6,0.1-0.8c0.2-0.2,0.6-0.3,0.8-0.1
			c0.7,0.6,1.3,1.2,1.8,1.9C36.7,32.3,36.7,32.5,36.7,32.5L36.7,32.5z"/>
		<path class="st0" d="M22.6,31.3c-0.4,0.6-0.5,1.3,0,2c0.3,0.3,0.2,0.7-0.2,1c-0.4,0.2-0.8,0.1-1-0.2c-0.3-0.5-0.6-1-0.7-1.6
			c0-0.1,0-0.3,0-0.4c0.3-0.9,0.6-1.7,1.2-2.5c0.2-0.3,0.7-0.4,1-0.1c0.4,0.3,0.3,0.6,0.1,1C22.9,30.8,22.8,31.1,22.6,31.3
			L22.6,31.3z"/>
		<path class="st0" d="M30.3,37.7c-0.4,0.2-0.8,0.3-1.2,0.3c-0.9-0.1-1.8-0.2-2.7-0.5c-0.5-0.2-0.9-0.5-0.7-1.1
			c0.2-0.5,0.7-0.4,1.2-0.3c1,0.3,2,0.6,3,0.3c0.4-0.1,0.7,0,0.9,0.4S30.6,37.4,30.3,37.7z"/>
		<path class="st0" d="M36.8,22.9c-0.8-0.6-1.7-0.8-2.7-0.8c-0.5,0-1.1,0-1.6,0.2c-0.4,0.1-0.7,0.4-0.5,0.9c0.1,0.4,0.5,0.6,0.9,0.5
			c0.1,0,0.2-0.1,0.3-0.1c1,0,2-0.2,2.8,0.4c0.4,0.3,0.8,0.4,1.2,0C37.5,23.5,37.2,23.2,36.8,22.9L36.8,22.9z"/>
		<path class="st0" d="M25.7,22.7c-0.3,0.5-0.7,0.4-1.1,0.2c-0.9-0.4-1.8-0.6-2.8-0.2c-0.2,0.1-0.5,0.1-0.7,0.1
			c-0.3,0-0.6-0.2-0.7-0.5c-0.1-0.3,0.1-0.6,0.4-0.8c0.6-0.2,1.2-0.5,2.1-0.5c0.7,0.2,1.6,0.1,2.4,0.7
			C25.6,21.9,25.9,22.2,25.7,22.7L25.7,22.7z"/>
		<path class="st0" d="M64.6,59.1c-0.4-2.7-1.2-5.3-2.2-7.8c-0.1-0.2-0.3-0.4-0.5-0.6c-1.7-0.8-3.4-1.7-5.2-2.4c-2-0.8-4-1.6-6-2.6
			c-1.3-0.6-2.8-1-4.1-1.8c-0.1-0.1-0.3-0.1-0.4-0.1c-0.5,0-0.9-0.3-1.2-0.7c-0.7-0.9-1.2-0.9-1.7-1c-0.5,0-0.9,0-1,0.2
			s-0.2,0.2-0.2,0.2s0-0.2-0.1-0.8c-0.2-1-0.6-1.8-1.2-2.5c-0.3-0.3-0.3-0.6-0.3-1c0-1.7,0.6-4,1.1-5.5c1.6-0.2,3.6-0.4,3.7-2.8
			v-2.4c0-0.3,0.1-0.4,0.3-0.8c0.2-0.4,0.4-1.2,0.4-1.8c0.6-0.2,0.6-0.7,0.8-1c0.2-0.3,0.3-0.5,0.6-0.6c0.5-0.4,0.6-0.9,0.7-1.5
			c0.2-0.9,0.3-1.7,0.3-2.6c-0.1-1.5-0.2-3-0.3-4.5c0-0.6-0.3-1.1-0.7-1.6c-0.6-0.8-1.1-1.6-1.9-2.3c-0.2-0.2-0.2-0.1-0.3-0.3
			c-0.1-0.1-0.2-0.2,0.3-0.5c0.3-0.2,0.5-0.6,0.3-1c-0.2-0.4-0.6-0.4-1-0.3L44,9.1c0,0,0.1-0.5,0.1-0.6C44,7.1,43.3,6,42.8,4.8
			c-0.1-0.3-0.3-0.5-0.6-0.6c-1.4-0.8-2.9-1.5-4.5-1.5c-1.1,0-2.2-0.1-3.2-0.3c-1.1-0.2-2-0.6-2.4-1.8C32,0.3,31.8,0,31.4,0
			c-0.4,0-0.8,0.3-1,0.6c-0.1,0.2-0.1,0.5-0.1,0.8c0,0.2-0.1,0.3-0.3,0.3c-0.9-0.2-1.7,0.2-2.5,0.5C26.3,2.4,25,2.7,24,3.4
			C22.9,4,21.7,4.5,21,5.7c-0.1,0.2-0.2,0.4-0.4,0.6c-0.8,0.4-1.2,1.1-1.4,1.9c-0.1,0.2-0.1,0.4-0.2,0.7c-1,1.6-1.4,3.4-1.8,5.2
			c-0.2,0.7-0.1,1.5-0.2,2.3c0,0.5-0.1,0.6-0.1,0.6h0.2c0,0,0.3,1.1,0.3,1.3c0,0.2,0.1,1,0.1,1.5c-0.1,0.3-0.1,0.6,0,0.9
			c0.5,1,0.8,1.9,0.2,3c-0.2,0.4-0.3,1,0.1,1.5c0.1,0.1,0.1,0.3,0.1,0.5c0,1,0,2,0,3.1c-0.1,1.5-0.1,3,0.6,4.5c0.4,1,0.9,2.1,1.5,3
			c0.8,1.1,1.4,2.2,1.4,2.2s0.1,1.6,0.1,2.3c0,1.2-1.1,2.5-2.2,2.6c-0.9,0.1-1.8,0.1-2.7,0.4c-1.4,0.5-2.5,1.4-4,1.8
			c-2.1,0.5-4,1.6-6.1,2c-1,0.2-1.8,0.5-2.2,1.5c-0.1,0.2-0.2,0.3-0.4,0.4c-1,0.6-1.4,1.6-1.8,2.5c-0.2,0.5-0.3,1-0.4,1.5
			C1,55.2,0.4,57,0.2,58.8C0.1,59.5,0,60.1,0,60.7c0,0.4,0.2,0.7,0.7,0.8c0.5,0,0.7-0.3,0.8-0.7c0-0.5,0-0.9,0.1-1.3
			c0.2-1.5,0.6-2.9,1-4.3c0.3-0.9,0.6-1.8,0.8-2.7c0.3-1.5,1.9-2.1,2.5-3.4C5.9,49,6.2,49,6.3,48.9c1.3-0.4,2.7-0.7,4-1.2
			c0.5-0.2,1-0.4,1.5-0.6c0.5-0.2,0.8-0.1,0.8-0.1s-0.1,0.2-0.1,0.7c-0.1,0.8-0.3,1.5-0.5,2.3c-0.6,2.3-1.7,4.6-2,7
			c-0.1,0.9-0.3,1.7-0.2,2.6c0,0.4,0.3,0.7,0.7,0.7c0.4,0,0.6-0.2,0.7-0.7c0-0.2,0-0.4,0-0.6c0.1-1.3,0.3-2.5,0.6-3.7
			c0.4-1.4,1.1-2.8,1.4-4.3c0.1-0.3,0.1-0.5,0.4-0.8c0.4-0.5,0.4-1,0.4-1.6c0-0.7,0.1-1.2,0.5-1.7c1.2-1.8,3.4-2.2,5.3-2.6l-0.1,0.6
			c-0.8,1.8-0.4,3.6,0.2,5.4c0.7,1.8,2,3.4,0.9,5.5c-0.4,0.6,0.3,1.2,1,0.9c0.5-0.2,1.1-0.4,1.6-0.4c0.8,0,1.2-0.4,1.4-1.1
			c0.1-0.4,0.2-0.9,0.2-1.3c0-0.9,0-1.9,0-2.8c0-0.3,0.1-0.7,0.4-0.8c0.3-0.1,0.6,0.2,0.8,0.4c0.5,0.6,0.6,1.3,0.8,2
			c0.1,0.4,0.2,0.9,0.6,1.1c0.4,0.2,0.3,0.4,0.3,0.8c-0.4,2.1-0.8,4.3-1.2,6.4c-0.1,0.5,0,1,0.6,1c0.5,0.1,0.8-0.3,0.9-0.8
			c0.3-1.7,0.7-3.4,1-5.2c0.2-1.4,0.6-2.5,1.4-3.7c0.4-0.6,0.7-0.6,1.2-0.1c0.8,0.8,1.3,1.7,1.5,2.8c0.1,0.5,0.3,0.9,0.5,1.4
			c0.2,0.8,0.9,0.8,1.5,0.8c0.6,0,1.2-0.2,1.3-0.9c0.1-0.5,0.3-0.8,0.7-1.1c0.7-0.7,1.5-1.4,1.9-2.3c0.7-1.5,1.5-2.9,2.2-4.4
			c0.3-0.7,0.6-1.5,1.3-2.1c0.1,0.7,0,1.3-0.2,1.8c-0.8,2.7-1.6,5.3-2.4,8c-0.3,1-0.5,1.9-0.7,2.9c-0.1,0.5,0.1,0.9,0.6,1
			c0.5,0.1,0.7-0.3,0.8-0.7c0-0.1,0-0.1,0-0.2c0.5-2.3,1.2-4.6,1.9-6.9c0.8-2.3,1.6-4.7,1.5-7.2c0-0.7-0.1-1-0.3-1.1
			C43.5,44,43,43.7,43,43.7s0.2-0.2,0.4-0.1c0.2,0.1,0.5,0.2,0.8,0.9c0.4,0.7,0.9,0.6,1.3,0.7c1.5,0.3,2.8,1,4.1,1.6
			c1.5,0.8,3,1.4,4.6,2c2.2,0.8,4.2,1.8,6.4,2.8c0.2,0.1,0.5,0.2,0.6,0.5c0.2,0.5,0.4,1.1,0.6,1.6c0.6,1.8,1.1,3.7,1.4,5.6
			c0.1,0.5,0.3,0.9,0.9,0.8C64.7,60,64.7,59.5,64.6,59.1z M44.4,25.9c-0.3,0.5-0.7,1-0.7,1.5s0,1.9,0,2.4c0,0.5,0,1.4-1.8,1.5
			c0,0-0.1-0.7,0-1.1c0-0.4,0.6-1.7,0.6-1.7s0.3,0.1,0.4,0c0.1-0.1,0.3-0.1,0.3-0.5v-0.8c0,0,0.3-0.2,0.3-0.4c0-0.2-0.1-1.3-0.1-1.3
			S44,25,44.3,25S44.7,25.4,44.4,25.9z M41.4,24.4l0.9,0.3l-0.2,1.6l-0.3-0.3C41.9,26.1,41.4,24.9,41.4,24.4z M18.5,16h-0.1
			c0,0,0.1-1.1,0.2-1.6c0.3-1.1,0.5-2.2,0.9-3.3c0.1-0.3,0.1-0.7,0.3-1c0.3-0.6,0.7-1.2,1.5-1.5c0.4-0.2,0.8-0.5,0.8-0.9
			c-0.1-1.8,1.2-2.3,2.4-3c1.4-0.9,3.2-1.1,4.7-1.7c0.1,0,0.2-0.1,0.3,0c0.5,0.1,1.4,0.2,1.8,0.2s0.4,0,0.6-0.1
			c0.2-0.1,0.3-0.1,0.5,0.1c0.2,0.1,0.6,0.3,1.1,0.5c1.1,0.4,2.3,0.5,3.5,0.4c1.5-0.1,2.9,0.4,4.2,1.1c0.2,0.1,0.4,0.2,0.5,0.4
			c0.6,1.3,1.2,2.7,1.1,4.2c-0.1,0.7,0.2,1.1,0.8,1.5c1.8,1,3,2.4,3,4.6L45,23.5c-0.1,0-0.1,0.1-0.2,0.1c-1.1,0-2.5,0-3.5-0.6
			c0.1-2,0.3-4.5,0.6-6.5c0.2-1.3,0.3-2.6,0.2-3.9c0-1.6-1.9-2.7-3.6-2.2c-0.6,0.2-1.2,0.2-1.7,0.1c-2-0.4-4-0.5-6,0.2
			c-1.5,0.5-1.8,0.4-1.9,0.3c0.4,0.1,1.3-0.2,1.8-0.5c0.3-0.2,0.2-0.6,0.1-0.9c-0.3-0.3-0.6-0.4-1-0.2c-0.9,0.3-1.8,0.4-2.8,0.4
			c-1.9-0.1-3.4,0.8-4.5,2.4c-0.2,0.3-0.4,0.2-0.5,0.1c-0.1-0.1-0.4-0.3-0.4-0.5c0-0.2,0.1-0.4-0.2-0.8c-0.2-0.3-0.6-0.7-1.1-0.5
			C20,10.4,20,10.8,20,11.3c0,0.4-0.3,0.8-0.4,1.2c-0.3,1.4,0,2.9-0.1,4.3c0,0-0.4,1.5-0.7,2.2C18.8,18.1,18.5,16,18.5,16z
			 M39.8,22.1L39.8,22.1c-0.2,0-0.3,0-0.4-0.2c0,0,0-0.1-0.1-0.1c-0.6-1-1.5-1.3-2.5-1.5c-0.7-0.1-1.4-0.2-2-0.3c-1-0.2-2,0-3,0.1
			c-0.3,0-0.6,0.1-0.8,0.3c-0.6,0.7-1.3,0.3-2,0.3c-0.7-0.1-1.4-0.1-1.9-0.7c-0.6-0.7-1.5-1-2.5-1.1c-1.3,0-2.6-0.4-4.1,0.3
			c1-2.1,0.5-4.1,0.7-6.2c0.5,0.4,1,0.7,1.5,1c0.9,0.5,1.5,0.2,1.5-0.8c0-0.2,0-0.4,0.1-0.5c0.1-0.2,0.2-0.4,0.5-0.6
			c0.6-0.4,1.1-0.9,1.9-1c0.3,0,0.5,0,0.5,0.4c0,0.4,0.2,0.7,0.7,0.8c0.8,0.1,1.7,0.3,2.5,0c1-0.3,2.1-0.6,3.2-0.7
			c0.9-0.1,1.8,0.1,2.7,0.2c1,0.1,2,0.3,3.1-0.1c1-0.3,1.7,0.3,1.7,1.3c0,0.9,0,1.7-0.3,2.5c-0.4,1.2-0.1,2.5-0.3,3.7
			c-0.2,0.8-0.2,1.6-0.2,2.4C40,21.8,40,22,39.8,22.1z M26.8,27.1c0.4-1.6,1-3.1,1.5-4.7c0.1-0.2,0.2-0.4,0.4-0.3
			c0.3,0,0.7,0,0.8,0.4c0.2,0.5,0.3,1,0.3,1.5c-0.1,1.3,0.4,2.3,1.5,3c0.4,0.3,0.2,0.5,0.1,0.8c-0.1,0.3-0.2,0.4-0.5,0.3
			c-0.2,0-0.3-0.1-0.5-0.1c-0.8-0.4-1.5-0.1-2,0.6c-0.3,0.4-0.5,0.3-0.8,0c-0.3-0.3-0.5-0.7-0.8-1C26.6,27.5,26.7,27.3,26.8,27.1z
			 M26.3,23.7c-0.2,0.4-0.5,0.8-0.8,1.2c-0.4,0.7-0.9,1.1-1.7,0.8c-0.3-0.1-0.6,0-0.9,0c-1.5,0.1-2.5-0.4-3-1.8
			c-0.3-0.8-0.5-1.5-0.6-2.3c0-0.3-0.1-0.6,0.4-0.5c0.3,0,0.5-0.1,0.7-0.2c0.7-0.3,1.4-0.6,2.2-0.5c0.7,0.1,1.5,0.1,2.2,0.2
			c0.5,0,0.9,0.3,1.1,0.7c0.2,0.3,0.3,0.6,0.7,0.7c0.3,0.1,0.3,0.3,0.2,0.5C26.7,22.8,26.6,23.3,26.3,23.7z M31.2,24.4
			c0-0.7,0.1-1.3-0.2-2c-0.1-0.4,0.5-0.9,1.1-1c0.5,0,0.9,0,1.3,0c1.3-0.2,2.5,0.2,3.7,0.5c0.4,0.1,0.4,0.3,0.5,0.5
			c0.2,0.2,0.5,0.7,0.8,0.7c0,0.4,0.1,0.8-0.2,1.3c-0.6,1.4-1.6,1.7-2.8,1.9c-0.3,0-0.7,0-1,0.1c-1.2,0.3-2.1-0.3-2.9-1
			C31.3,25.2,31.2,24.8,31.2,24.4z M24.3,49.3c-0.6,0.5-0.9,1.1-0.9,1.9c0,1,0,1.9,0,2.8c0,0.2,0,0.5,0,0.7
			c-0.1,0.3-0.4,0.3-0.6,0.3h-0.4l0.1-0.5c0.1-0.8-0.1-1.5-0.4-2.3c-0.4-0.8-0.7-1.7-1.1-2.5c-0.5-1.4-0.9-2.8-0.1-4.3
			c0.2-0.5,0.1-1.1,0.5-1.7c0.5,1.9,1.8,3.2,2.9,4.6C24.7,48.8,24.8,48.9,24.3,49.3z M31.5,50c-0.5-0.4-1-0.2-1.1,0.5l-0.1,0.4
			c0,0-0.3,0.2-0.7,0.4c-0.4,0.2-0.7,0.8-0.9,1.3c-0.1,0.3-0.4,0.1-0.4-0.2c-0.1-1.3-1.1-2.3-1.5-3.4c-0.1-0.3-0.3-0.5-0.5-0.7
			c-1-1-2-2.1-2.7-3.3c-0.6-0.8-1-1.4-0.9-2.2c0.1-0.8,0.1-2.5,0.1-2.5s0.7,0.7,1.4,1.3c0.7,0.6,2,1,3.8,1.3
			c0.4,0.1,0.8,0.1,1.3,0.2c1.3,0.2,2.5,0.2,3.8-0.6c1.2-0.8,2.6-1.5,4-2.2c0.5-0.3,1-0.7,1.4-1.2c0.3-0.3,0.3-0.7,0-1
			c-0.3-0.3-0.7-0.3-1,0c-1.3,1.3-3.2,1.8-4.7,2.9c-1.9,1.3-3.9,0.6-5.8,0.3c-1.8-0.3-2.8-1.5-3.7-2.9c-0.9-1.4-1.7-2.9-2.7-4.4
			c-0.9-1.4-1.3-3-1.2-4.6c0-1.1,0-2.3,0-3.6c0.5,0.4,0.8,0.7,1.2,0.9c0.8,0.5,1.7,0.8,2.7,0.6c0.6-0.1,1.3,0,1.9,0
			c0.2,0,0.2,0.2,0.2,0.3c-0.1,0.3-0.1,0.5-0.3,0.8c-0.4,0.5-0.2,1,0.4,1.2c0.7,0.1,1.4,0.3,2,0.8c0.5,0.5,1.3,0.3,1.9-0.3
			c0.3-0.4,0.7-0.5,1.2-0.4c0.4,0.1,0.8,0.2,1.2,0.3c1,0.1,1.5-0.3,1.4-1.3c-0.1-0.5,0-0.5,0.5-0.5c1.1,0.1,2.3-0.1,3.4-0.4
			c0.2,0,0.3-0.1,0.5-0.1c1.1,0,1.7-0.7,2.1-1.6c0.1-0.4,0.3-1.2,0.3-1.2c0.3,0.1,0.3,0.1,0.4-0.5c0,0,0.5,2,0.7,2.4
			c0.5,0.9,0.6,1.7,0.1,2.6c-0.2,0.4-0.2,0.9-0.3,1.3c-0.1,1.1-0.3,2.2-0.9,3.3c-0.7,1.4-0.6,3-0.7,4.6c-0.1,1-0.1,1.9,0,2.9
			c0,0.7-0.2,1.3-0.6,1.8c-0.5,0.7-1.1,1.3-1.7,2c-0.7,0.8-1.3,1.6-1.6,2.6c-0.1,0.4-0.4,0.7-0.7,0.9c-0.8,0.5-1.7,1-2.3,1.6
			C32,50,31.7,50.1,31.5,50z M41.8,45.4c-0.8,0.5-1.3,1.3-1.7,2.2c-0.8,1.6-1.7,3.1-2.4,4.8c-0.3,0.7-0.9,1.2-1.4,1.8
			c-0.5,0.6-1.1,1.1-1.4,1.9c-0.4-0.5-0.6-1.1-0.7-1.7c-0.2-0.9-0.6-1.7-1.3-2.3c-0.4-0.4-0.4-0.7,0.1-0.9c0.3-0.2,0.6-0.5,1-0.7
			c1.5-0.7,2.4-1.9,3.3-3.1c0.2-0.2-0.3-0.3-0.1-0.5c1-1.2,2-2.5,3-3.7c0.2-0.2,0.3-0.4,0.3-0.7l0-1.1c0,0,0.2,1,0.3,1.3
			c0.2,0.7,0.4,1.5,1.1,2C42.2,44.8,42.1,45.1,41.8,45.4z"/>
	</g>
</g>
</svg>
